# xmcd
#
# Track frame offsets:
#	150
#	24684
#	49602
#	51921
#	70979
#	89437
#	122653
#	147876
#	160215
#	179647
#	198476
#	207021
#	214333
#	249069
#	257316
#
# Disc length: 3795 seconds
#
# Revision: 0
# Processed by: cddbd v1.5.2PL0 Copyright (c) Steve Scherf et al.
# Submitted via: EZCDAudioConverter 1.3.4.1
#
DISCID=d70ed10f
DTITLE=Shaolin Afronauts - Follow The Path
DYEAR=1900
DGENRE=
TTITLE0=Ojo Abameta
TTITLE1=To The Water
TTITLE2=Baie De Sangareya Intro
TTITLE3=Baie De Sangareya
TTITLE4=Sissoko
TTITLE5=Lagos Chase
TTITLE6=At The Shrine
TTITLE7=Interlude 1
TTITLE8=Follow The Path
TTITLE9=Boogie Back Accra
TTITLE10=To The Water Interlude
TTITLE11=Caravan To Tao Ceti Intro
TTITLE12=Caravan To Tao Ceti
TTITLE13=Interstellar Griot (Part 1)
TTITLE14=Interstellar Griot (Part 2)
EXTD=
EXTT0=
EXTT1=
EXTT2=
EXTT3=
EXTT4=
EXTT5=
EXTT6=
EXTT7=
EXTT8=
EXTT9=
EXTT10=
EXTT11=
EXTT12=
EXTT13=
EXTT14=
PLAYORDER=
